<svg xmlns="http://www.w3.org/2000/svg" fill="#ef3124" viewBox="0 0 140.58 214.56"><g data-name="Слой 2"><g data-name="Слой 1"><path d="M137.6 145.57h-9.35c-6.07 0-12.15-.12-18.21.06-2.38.07-3.27-.75-3.93-3-2.37-8-5-16-7.48-24-.62-2-1.48-2.88-3.78-2.86q-25.08.17-50.16 0c-2 0-3 .5-3.72 2.59-2.7 8.37-5.64 16.66-8.47 25-.42 1.23-.8 2.22-2.48 2.2-8.57-.08-17.14 0-25.71 0a7 7 0 0 1-1.24-.26c1.34-3.87 2.61-7.61 3.93-11.3Q26.86 77.49 46.78 21a78.66 78.66 0 0 1 3.79-8.93C53.93 5.41 59.28 1.21 66.81.35c7.34-.84 14.53-.48 20.43 4.83 3.62 3.25 5.78 7.5 7.31 12q10.17 29.94 20.19 59.92 11 32.8 22 65.61c.26.79.48 1.58.86 2.86ZM89.69 91.21 70.94 32.27l-.92.08c-6.57 19.52-13.14 39.05-19.8 58.86ZM0 185.92h140.58v28.64H0Z"/></g></g></svg>