<svg width="26" height="27" fill="none" xmlns="http://www.w3.org/2000/svg"><path fill-rule="evenodd" clip-rule="evenodd" d="M0 .613h26v26H0v-26z" fill="#04734A"/><path fill-rule="evenodd" clip-rule="evenodd" d="M11.803 25.245c0-5.645-4.619-10.092-10.092-10.092V19.6a5.768 5.768 0 0 1 5.815 5.816h4.277v-.171z" fill="#fff"/><path fill-rule="evenodd" clip-rule="evenodd" d="M17.96 25.245c0-9.066-7.355-16.421-16.42-16.421v4.447c6.67 0 11.973 5.303 11.973 11.974h4.448z" fill="#fff"/><path fill-rule="evenodd" clip-rule="evenodd" d="M24.119 25.245c0-7.526-3.593-14.026-9.237-18.303h9.237V2.495H1.539v4.447c10.093 0 18.132 8.21 18.132 18.132h4.448v.171z" fill="#fff"/></svg>