<svg width="32" height="28" fill="none" xmlns="http://www.w3.org/2000/svg"><path d="M27.039 20.146c0 2.72-2.288 4.934-5.104 4.934H9.08c-2.096 0-3.899-1.229-4.683-2.978l.448-.376.934-2.572-1.802-2.95v-8.47c0-2.72 2.29-4.933 5.103-4.933h12.855c2.816 0 5.104 2.213 5.104 4.933v12.413zM21.935.416H9.08C4.906.417 1.51 3.7 1.51 7.734v12.413c0 4.034 3.397 7.32 7.571 7.32h12.855c4.178 0 7.573-3.286 7.573-7.32V7.733c0-4.033-3.395-7.316-7.573-7.316z" fill="#E6E7E8"/><path d="M24.119 19.673c.258.082.56.13.908.13 1.37 0 2.013-.525 2.013-1.153 0-.731-1.027-.73-1.133-1.373-.133-.805-.049-4.367 1.382-6.337l.956.417s.272.149.601.135c.213-.01.435-.101.647-.322.54-.559 2.027-2.378 2.502-3.331.117-.235-1.895-2.665-3.025-3.548a4.588 4.588 0 0 0-2.817-.953c-1.971 0-3.647 1.218-4.267 2.918-1.258.866-3.77 2.262-6.396 2.932-3.084.785-6.28.051-8.451.157-2.792.135-4.453 2.113-4.385 4.4.067 2.326 1.723 4.44 1.723 6.622 0 1.71-1.442 2.465-2.434 2.465-1.187 0-1.266-.468-1.626-.468-.146 0-.317.118-.317.305 0 .578 1.468 1.128 2.302 1.128 2.224 0 3.152-1.533 3.152-1.533s.566 1.588 2.76 1.588c1.749 0 2.507-.808 2.507-1.484 0-.547-.345-.78-.592-1.102-.348-.456-.335-1.015-.335-1.015s.382.06.95.06c1.271 0 1.664-.497 1.664-.987 0-.63-.764-.586-.764-1.62 0-.783.45-1.041.845-1.041.427 0 2.048.15 4.014.343.656.064 2.293.677 2.293 3.131v.882c0 1.496.623 3.348 3.36 3.348 1.86 0 2.903-1.003 2.903-1.727 0-.473-.429-.68-.64-.964-.62-.839-.313-2.003-.313-2.003H24.119z" fill="#FF661C"/><path d="M28.629 8.956c-.18 0-.325.14-.325.31 0 .173.144.314.325.314.178 0 .32-.14.32-.313a.315.315 0 0 0-.32-.311zM29.754 8.044a.287.287 0 0 0-.291.282c0 .156.13.282.291.282a.287.287 0 0 0 .292-.282.287.287 0 0 0-.292-.282zM30.28 6.996a.239.239 0 0 0-.241.233c0 .13.11.234.242.234a.24.24 0 0 0 .243-.234.24.24 0 0 0-.243-.233zM21.035 8.474c.191 0 .348-.15.348-.337a.344.344 0 0 0-.348-.338.343.343 0 0 0-.35.338c0 .187.155.337.35.337zM22.376 16.631a.344.344 0 0 0-.35.337c0 .184.158.337.35.337a.344.344 0 0 0 .348-.337.343.343 0 0 0-.348-.337zM24.454 16.968c-.191 0-.35.15-.35.336 0 .186.159.337.35.337.193 0 .35-.151.35-.337a.343.343 0 0 0-.35-.336zM22.665 13.564a.344.344 0 0 0-.35.337c0 .187.156.338.35.338.192 0 .35-.15.35-.338a.345.345 0 0 0-.35-.337zM23.854 11.282c.192 0 .35-.15.35-.337a.345.345 0 0 0-.35-.338.342.342 0 0 0-.347.338.34.34 0 0 0 .346.337zM18.411 9.92c.193 0 .35-.15.35-.336a.344.344 0 0 0-.35-.337.344.344 0 0 0-.349.337c0 .185.156.336.35.336zM20.364 15.94a.343.343 0 0 0-.35.336c0 .186.156.337.35.337a.343.343 0 0 0 .349-.337.341.341 0 0 0-.349-.336zM19.404 11.58c.189 0 .345-.15.345-.337a.342.342 0 0 0-.345-.336.345.345 0 0 0-.352.336c0 .187.158.338.352.338zM17.196 13.498a.344.344 0 0 0-.348.338c0 .185.157.336.348.336.193 0 .35-.151.35-.337a.345.345 0 0 0-.35-.337zM20.805 13.138c.192 0 .35-.151.35-.336a.344.344 0 0 0-.35-.337.342.342 0 0 0-.346.337c0 .185.155.336.346.336zM15.292 10.117a.345.345 0 0 0-.35.338c0 .185.157.337.35.337.192 0 .35-.15.35-.337a.345.345 0 0 0-.35-.338zM16.05 11.868a.342.342 0 0 0-.347.338c0 .185.155.336.347.336.192 0 .35-.151.35-.336a.345.345 0 0 0-.35-.338zM18.607 14.805a.344.344 0 0 0-.349.339c0 .185.156.338.349.338.192 0 .35-.152.35-.338a.345.345 0 0 0-.35-.34zM22.194 10.037c.192 0 .351-.15.351-.334a.346.346 0 0 0-.351-.337.343.343 0 0 0-.348.337c0 .184.156.334.348.334zM24.76 14.21a.341.341 0 0 0-.347.336c0 .186.155.337.348.337a.342.342 0 0 0 .347-.337.34.34 0 0 0-.347-.336zM25.636 11.46c-.19 0-.35.15-.35.337 0 .185.158.336.35.336.192 0 .349-.15.349-.336a.344.344 0 0 0-.35-.337zM25.41 8.69a.345.345 0 0 0-.35.338c0 .186.157.338.35.338.191 0 .348-.152.348-.338a.343.343 0 0 0-.347-.338zM27.068 9.208a.342.342 0 0 0-.348.336c0 .186.156.337.348.337a.342.342 0 0 0 .347-.337.342.342 0 0 0-.347-.336zM24.167 7.648a.345.345 0 0 0-.352.337c0 .184.158.336.352.336a.342.342 0 0 0 .348-.336.342.342 0 0 0-.348-.337zM23.48 6.378c-.192 0-.35.15-.35.337 0 .186.157.337.35.337.192 0 .35-.151.35-.337a.342.342 0 0 0-.35-.337zM24.926 6.378c-.192 0-.35.15-.35.337 0 .186.157.337.35.337a.343.343 0 0 0 .348-.337.342.342 0 0 0-.348-.337zM23.275 5.456c0-.155.13-.281.291-.281.163 0 .293.126.293.281 0 .157-.13.283-.293.283a.286.286 0 0 1-.29-.283zM24.143 4.432c0-.115.094-.21.219-.21.12 0 .217.095.217.21a.215.215 0 0 1-.217.215.215.215 0 0 1-.219-.215zM25.268 3.949c0-.1.084-.185.191-.185.109 0 .195.085.195.185a.189.189 0 0 1-.195.186.187.187 0 0 1-.19-.186zM30.061 6.273c0-.091.08-.167.175-.167.098 0 .177.076.177.167 0 .096-.079.17-.177.17a.172.172 0 0 1-.175-.17zM29.812 9.642a.187.187 0 0 1 .183-.19.187.187 0 0 1 .199.175.184.184 0 0 1-.181.192.192.192 0 0 1-.2-.177zM30.307 8.992a.184.184 0 0 1 .182-.191.19.19 0 0 1 .199.175.184.184 0 0 1-.182.19.184.184 0 0 1-.198-.174zM29.29 10.287a.183.183 0 0 1 .182-.191.188.188 0 0 1 .198.174.188.188 0 0 1-.183.192.186.186 0 0 1-.196-.174l-.001-.001zM28.698 10.89a.185.185 0 0 1 .182-.191.189.189 0 0 1 .198.175.186.186 0 0 1-.184.192.185.185 0 0 1-.196-.175zM30.759 8.345a.187.187 0 0 1 .182-.192.185.185 0 0 1 .197.177.185.185 0 0 1-.182.191.186.186 0 0 1-.197-.176zM31.11 7.776a.185.185 0 0 1 .181-.191.184.184 0 0 1 .197.175c.007.104-.075.188-.182.193a.188.188 0 0 1-.196-.178zM9.327 22.014s-1.276-2.13-.394-4.316c.975-2.418 3.78-2.101 3.78-2.101a3.394 3.394 0 0 0-1.481-.28c-1.947.074-3.46 1.79-3.376 3.834a3.775 3.775 0 0 0 1.471 2.863z" fill="#FEFEFE"/><path d="M4.614 15.225a2.866 2.866 0 0 1-.887-2.07c0-1.617 1.358-2.842 3.032-2.928 1.723-.09 4.888.41 6.904.154.697 3.007 3.789 5.93 6.216 7.26-2.882-1.237-5.641-4.057-8.053-5.349-2.519-1.348-5.044-1.55-6.372-.37-1.143 1.014-1.051 2.452-.84 3.304zM11.747 18.262c.155.868-1.465 1.142-1.465 1.142 1.473.253 2.023-.51 2.023-.51l-.558-.633zM23.477 18.727v-.011s-.955 1.317-.298 3.71c-.399.374-1.128.68-1.707.836 0 0 2.224.277 2.918-.865-1.342-1.003-.94-3.5-.912-3.67h-.001zM28.995 6.493c-.093.494-.665.806-1.28.696-.614-.108-1.038-.594-.943-1.087.093-.492.664-.805 1.282-.695.613.107 1.034.596.942 1.087l-.001-.001zm-1.084-1.478c-.865-.153-1.673.288-1.804.983-.13.694.463 1.381 1.33 1.534.867.15 1.675-.288 1.805-.982.13-.697-.464-1.382-1.33-1.535h-.001z" fill="#FEFEFE"/><path d="M27.833 6.277c.05-.273.367-.446.707-.386.339.061.573.33.522.601-.053.274-.369.445-.71.385-.339-.058-.574-.327-.52-.6zM26.021 17.542h-.002.002c.532.955-1.172 1.306-1.172 1.306 1.184.194 1.864-.542 1.864-.846-.253-1.033-.534-.249-.693-.46h.001zM29.585 5.774a2.526 2.526 0 0 0-2.17-1.219c-.845 0-1.594.41-2.047 1.027a.418.418 0 0 1-.573.054.382.382 0 0 1-.056-.55 3.001 3.001 0 0 1 2.192-.942c1.19 0 2.212.672 2.653 1.63h.001zM26.877 10.75c-.895-.027-2.041-.449-3.112-1.214-.899-.642-1.576-1.406-1.939-2.119a.256.256 0 0 1 .096-.354c.126-.072.3-.035.366.093.391.752.973 1.586 1.842 2.273.9.714 1.869 1.164 2.748 1.32h-.001zM25.69 13.104c-1.616-.098-3.46-.91-4.882-2.32a7.662 7.662 0 0 1-1.513-2.079.25.25 0 0 1 .104-.35c.13-.071.3-.03.364.1.417.863.94 1.767 1.797 2.595 1.233 1.188 2.73 1.894 4.13 2.053zM16.632 9.573a.273.273 0 0 1 .34.16c.69 1.65 1.059 2.325 2.372 3.67 1.773 1.816 4.348 2.47 5.772 2.498-1.21.103-4.195-.443-6.264-2.52-1.166-1.169-2.016-2.404-2.387-3.482a.257.257 0 0 1 .166-.327h.001z" fill="#FEFEFE"/><path d="M26.091 7.574c.35.222.863.44 1.55.464 1.447.043 1.945-1.068 2.005-1.5.02.317-.415 1.852-2.195 1.876-.686.009-1.222-.145-1.603-.372a.26.26 0 0 1-.12-.351c.069-.128.24-.196.363-.118z" fill="#FEFEFE"/></svg>