<svg width="30" height="25" fill="none" xmlns="http://www.w3.org/2000/svg"><path fill-rule="evenodd" clip-rule="evenodd" d="M28.128 16.026S4.373 5.288 4.138 5.17c-.701-.236-1.637.354-1.052 1.18.117.118 1.99 2.832 1.99 2.832s-.586-.944-.469-1.298c0-.236.351-.472.468-.354.234.118 22.585 9.795 22.585 9.795.819.354 1.52.118 1.755-.472.234-.472.351-1.063.468-1.535-.234.119-.702 1.18-1.755.708zm1.755-4.13c0 .236-.234 1.416-1.521.826-.234 0-26.797-12.39-27.149-12.626C.745-.14-.425.214.16 1.394l2.107 3.422s-.351-.826-.468-1.534c0-.236.234-.472.585-.354 0 0 25.86 11.446 26.095 11.564.585.236 1.404.118 1.521-.59v-.707c-.117-.473-.117-.827-.117-1.299zm-2.457 6.609c-.117 0-20.362-8.615-20.596-8.615-.702-.236-1.17.354-.702 1.063 0 .117 1.638 2.123 1.638 2.123s-.35-.59-.35-.825c0-.236.116-.59.702-.354.468.236 18.723 7.67 18.723 7.67.585.236 1.053.236 1.287-.118a7.54 7.54 0 0 0 .936-1.652c-.351.236-.82 1.062-1.638.708z" fill="#EF3627"/><path d="M8 13.785c.352 5.664 5.15 10.266 11 10.266a11.02 11.02 0 0 0 8.426-3.894s-.351.236-.82 0c0 0-14.86-5.664-17.903-6.726h-.234c-.351 0-.468.236-.468.354zm4.798-9.559 15.447 7.199c1.404.707 1.521-.237 1.521-.237-.936-5.074-5.5-8.85-10.766-8.85-2.34 0-4.446.708-6.202 1.888z" fill="#1258A9"/></svg>